<svg width="32" height="4" viewBox="0 0 32 4" fill="none" xmlns="http://www.w3.org/2000/svg">
<path d="M1 1.75C0.861929 1.75 0.75 1.86193 0.75 2C0.75 2.13807 0.861929 2.25 1 2.25V1.75ZM31.1768 2.17678C31.2744 2.07915 31.2744 1.92085 31.1768 1.82322L29.5858 0.232233C29.4882 0.134602 29.3299 0.134602 29.2322 0.232233C29.1346 0.329864 29.1346 0.488155 29.2322 0.585786L30.6464 2L29.2322 3.41421C29.1346 3.51184 29.1346 3.67014 29.2322 3.76777C29.3299 3.8654 29.4882 3.8654 29.5858 3.76777L31.1768 2.17678ZM1 2.25H31V1.75H1V2.25Z" fill="#FEF9F0"/>
</svg>
