<svg width="120" height="65" viewBox="0 0 120 65" fill="none" xmlns="http://www.w3.org/2000/svg">
<path d="M9.43359 51.9029V46.2333H13.8793V51.9029H12.9879V47.0366H10.3136V51.9029H9.43359ZM21.1207 48.4103V51.9029H20.2978V51.1694C19.8711 51.7438 19.2464 52.0309 18.4235 52.0309C17.8445 52.0309 17.3759 51.8873 17.0178 51.6002C16.6597 51.3052 16.4807 50.9172 16.4807 50.436C16.4807 49.9548 16.6635 49.5706 17.0292 49.2835C17.395 48.9963 17.8788 48.8527 18.4807 48.8527H20.2407V48.3638C20.2407 47.9058 20.1188 47.5527 19.875 47.3044C19.6388 47.056 19.3111 46.9318 18.8921 46.9318C18.2673 46.9318 17.7264 47.2345 17.2692 47.8399L16.6864 47.3509C17.1816 46.5205 17.9359 46.1052 18.9492 46.1052C19.6197 46.1052 20.1492 46.307 20.5378 46.7106C20.9264 47.1064 21.1207 47.673 21.1207 48.4103ZM20.2407 49.7258V49.5861H18.5835C17.7835 49.5861 17.3835 49.8539 17.3835 50.3894C17.3835 50.6688 17.4902 50.89 17.7035 51.053C17.9245 51.2082 18.2026 51.2858 18.5378 51.2858C19.0026 51.2858 19.4026 51.1345 19.7378 50.8318C20.0731 50.5291 20.2407 50.1605 20.2407 49.7258ZM29.0214 46.9551C29.5471 47.5217 29.81 48.2241 29.81 49.0623C29.81 49.9005 29.5433 50.6067 29.01 51.1811C28.4843 51.7476 27.8329 52.0309 27.0557 52.0309C26.1795 52.0309 25.4976 51.7166 25.01 51.0879V53.9984H24.13V46.2333H24.9529V47.1414C25.1662 46.8154 25.4595 46.5632 25.8329 46.3847C26.2062 46.1984 26.6138 46.1052 27.0557 46.1052C27.8481 46.1052 28.5033 46.3885 29.0214 46.9551ZM28.3357 50.599C28.7167 50.1954 28.9071 49.687 28.9071 49.0739C28.9071 48.4608 28.7167 47.9524 28.3357 47.5488C27.9624 47.1375 27.4938 46.9318 26.93 46.9318C26.3967 46.9318 25.9395 47.1181 25.5586 47.4906C25.1852 47.8632 24.9986 48.387 24.9986 49.0623C24.9986 49.753 25.1814 50.2847 25.5471 50.6572C25.9205 51.022 26.3814 51.2044 26.93 51.2044C27.4938 51.2044 27.9624 51.0026 28.3357 50.599ZM34.1665 46.2333H36.3836V51.9029H35.5036V49.8306H34.4522L32.9208 51.9029H31.8922L33.5151 49.7142C33.1036 49.59 32.7798 49.3844 32.5436 49.0972C32.3151 48.8023 32.2008 48.453 32.2008 48.0494C32.2008 47.4984 32.3798 47.0599 32.7379 46.7339C33.096 46.4002 33.5722 46.2333 34.1665 46.2333ZM35.5036 49.039V47.0366H34.2236C33.8731 47.0366 33.5989 47.1258 33.4008 47.3044C33.2027 47.4829 33.1036 47.7273 33.1036 48.0378C33.1036 48.3405 33.2027 48.5849 33.4008 48.7712C33.6065 48.9497 33.8846 49.039 34.2351 49.039H35.5036ZM46.811 53.5444V51.9029H39.4738V46.2333H40.3538V51.1112H42.6852V46.2333H43.5652V51.1112H45.9081V46.2333H46.7881V51.1112H47.691V53.5444H46.811ZM54.3863 48.4103V51.9029H53.5634V51.1694C53.1368 51.7438 52.512 52.0309 51.6891 52.0309C51.1101 52.0309 50.6415 51.8873 50.2834 51.6002C49.9253 51.3052 49.7463 50.9172 49.7463 50.436C49.7463 49.9548 49.9291 49.5706 50.2949 49.2835C50.6606 48.9963 51.1444 48.8527 51.7463 48.8527H53.5063V48.3638C53.5063 47.9058 53.3844 47.5527 53.1406 47.3044C52.9044 47.056 52.5768 46.9318 52.1577 46.9318C51.533 46.9318 50.992 47.2345 50.5349 47.8399L49.952 47.3509C50.4472 46.5205 51.2015 46.1052 52.2149 46.1052C52.8853 46.1052 53.4149 46.307 53.8034 46.7106C54.192 47.1064 54.3863 47.673 54.3863 48.4103ZM53.5063 49.7258V49.5861H51.8491C51.0491 49.5861 50.6491 49.8539 50.6491 50.3894C50.6491 50.6688 50.7558 50.89 50.9691 51.053C51.1901 51.2082 51.4682 51.2858 51.8034 51.2858C52.2682 51.2858 52.6682 51.1345 53.0034 50.8318C53.3387 50.5291 53.5063 50.1605 53.5063 49.7258ZM59.2356 46.2333H61.4528V51.9029H60.5728V49.8306H59.5213L57.9899 51.9029H56.9613L58.5842 49.7142C58.1728 49.59 57.849 49.3844 57.6128 49.0972C57.3842 48.8023 57.2699 48.453 57.2699 48.0494C57.2699 47.4984 57.449 47.0599 57.807 46.7339C58.1651 46.4002 58.6413 46.2333 59.2356 46.2333ZM60.5728 49.039V47.0366H59.2928C58.9423 47.0366 58.668 47.1258 58.4699 47.3044C58.2718 47.4829 58.1728 47.7273 58.1728 48.0378C58.1728 48.3405 58.2718 48.5849 58.4699 48.7712C58.6756 48.9497 58.9537 49.039 59.3042 49.039H60.5728ZM68.889 51.9029V46.1052H69.209L71.849 49.2951L74.4775 46.1052H74.7861V51.9029H73.9061V48.0727L72.009 50.3778H71.6661L69.769 48.0727V51.9029H68.889ZM82.781 49.3417H78.381C78.4343 49.9005 78.6514 50.3506 79.0324 50.6921C79.4133 51.0336 79.8781 51.2044 80.4267 51.2044C81.0591 51.2044 81.6267 50.9482 82.1295 50.436L82.6438 51.0414C82.0191 51.7011 81.2762 52.0309 80.4152 52.0309C79.5848 52.0309 78.8838 51.7476 78.3124 51.1811C77.7486 50.6067 77.4667 49.9044 77.4667 49.0739C77.4667 48.2512 77.741 47.5527 78.2895 46.9784C78.8457 46.3963 79.52 46.1052 80.3124 46.1052C81.0362 46.1052 81.6381 46.3458 82.1181 46.827C82.6057 47.3082 82.8495 47.9214 82.8495 48.6664C82.8495 48.8838 82.8267 49.1088 82.781 49.3417ZM78.4152 48.55H81.9467C81.9391 48.0533 81.779 47.6575 81.4667 47.3626C81.1543 47.0676 80.7619 46.9202 80.2895 46.9202C79.8248 46.9202 79.421 47.0715 79.0781 47.3742C78.7352 47.6691 78.5143 48.0611 78.4152 48.55ZM91.0242 49.167C91.0394 49.9432 90.7575 50.6184 90.1785 51.1927C89.5994 51.7593 88.9137 52.0348 88.1213 52.0193C87.268 52.0193 86.5747 51.7244 86.0413 51.1345C85.5156 50.5447 85.2528 49.7763 85.2528 48.8294V47.8399C85.2528 46.9551 85.3366 46.2411 85.5042 45.6978C85.8699 44.5336 86.929 43.8002 88.6813 43.4975C89.6185 43.3267 90.2432 43.1754 90.5556 43.0435V43.905C90.1975 44.0602 89.607 44.1999 88.7842 44.3241C87.9994 44.4405 87.409 44.6461 87.0128 44.9411C86.6166 45.236 86.369 45.5775 86.2699 45.9655C86.1632 46.3614 86.1099 46.8581 86.1099 47.4557C86.3461 47.0987 86.6509 46.8193 87.0242 46.6175C87.4051 46.4157 87.8128 46.3148 88.247 46.3148C88.9937 46.2993 89.6451 46.5826 90.2013 47.1647C90.7651 47.739 91.0394 48.4064 91.0242 49.167ZM89.5385 50.6106C89.927 50.2148 90.1213 49.7336 90.1213 49.167C90.1213 48.6005 89.927 48.1232 89.5385 47.7351C89.1575 47.3393 88.689 47.1414 88.1328 47.1414C87.5842 47.1414 87.1156 47.3393 86.7271 47.7351C86.3385 48.1309 86.1442 48.6082 86.1442 49.167C86.1442 49.7181 86.3385 50.1954 86.7271 50.599C87.1232 50.9948 87.5918 51.1927 88.1328 51.1927C88.689 51.1927 89.1575 50.9987 89.5385 50.6106ZM98.6271 49.3417H94.2269C94.2802 49.9005 94.4973 50.3506 94.8783 50.6921C95.2595 51.0336 95.7243 51.2044 96.2729 51.2044C96.9052 51.2044 97.4729 50.9482 97.9757 50.436L98.49 51.0414C97.8652 51.7011 97.1224 52.0309 96.2614 52.0309C95.431 52.0309 94.7297 51.7476 94.1583 51.1811C93.5945 50.6067 93.3126 49.9044 93.3126 49.0739C93.3126 48.2512 93.5869 47.5527 94.1354 46.9784C94.6916 46.3963 95.3662 46.1052 96.1586 46.1052C96.8824 46.1052 97.4843 46.3458 97.9643 46.827C98.4519 47.3082 98.6957 47.9214 98.6957 48.6664C98.6957 48.8838 98.6729 49.1088 98.6271 49.3417ZM94.2611 48.55H97.7929C97.7852 48.0533 97.6252 47.6575 97.3129 47.3626C97.0005 47.0676 96.6081 46.9202 96.1357 46.9202C95.671 46.9202 95.2672 47.0715 94.924 47.3742C94.5811 47.6691 94.3602 48.0611 94.2611 48.55ZM101.819 46.2333H105.59V51.9029H104.71V47.0366H102.641L102.619 47.7351C102.565 49.2641 102.413 50.3429 102.161 50.9715C101.91 51.6002 101.464 51.9261 100.824 51.9494C100.71 51.9494 100.611 51.9339 100.527 51.9029V51.1461C100.649 51.1617 100.725 51.1694 100.756 51.1694C101.106 51.1694 101.358 50.8939 101.51 50.3429C101.67 49.7918 101.761 48.9148 101.784 47.7118L101.819 46.2333ZM108.677 51.9029V46.2333H109.557V48.1891H110.882C111.515 48.1891 112.018 48.3599 112.391 48.7014C112.772 49.0351 112.962 49.4814 112.962 50.0402C112.962 50.599 112.772 51.0491 112.391 51.3906C112.018 51.7321 111.515 51.9029 110.882 51.9029H108.677ZM109.557 51.1112H110.837C111.218 51.1112 111.515 51.0181 111.728 50.8318C111.949 50.6378 112.06 50.3778 112.06 50.0518C112.06 49.7258 111.949 49.4658 111.728 49.2718C111.507 49.0778 111.206 48.9808 110.825 48.9808H109.557V51.1112Z" fill="#BDA37D"/>
<path d="M55.5083 33.4163V17.4089H59.7715V33.4163H55.5083ZM54.9083 11.588C54.9083 10.8119 55.1715 10.1651 55.6978 9.64771C56.2241 9.13029 56.8662 8.87158 57.6241 8.87158C58.382 8.87158 59.0241 9.13029 59.5504 9.64771C60.0978 10.1651 60.3715 10.8119 60.3715 11.588C60.3715 12.3426 60.0978 12.9786 59.5504 13.496C59.0241 14.0133 58.382 14.2721 57.6241 14.2721C56.8662 14.2721 56.2241 14.0133 55.6978 13.496C55.1715 12.9786 54.9083 12.3426 54.9083 11.588Z" fill="#BDA37D"/>
<path d="M78.3568 23.4883V33.4161H74.1251V24.0704C74.1251 23.1433 73.8515 22.3996 73.3041 21.839C72.7778 21.2569 72.083 20.9659 71.2199 20.9659C70.3568 20.9659 69.6409 21.2569 69.0725 21.839C68.5251 22.3996 68.2514 23.1433 68.2514 24.0704V33.4161H63.9883V17.4086H67.9041V18.8639C69.083 17.6566 70.6093 17.053 72.483 17.053C74.2936 17.053 75.7251 17.6351 76.7778 18.7992C77.8305 19.9634 78.3568 21.5264 78.3568 23.4883Z" fill="#BDA37D"/>
<path d="M94.2405 17.4086H98.1562V31.6375C98.1562 34.203 97.4295 36.1757 95.9772 37.5554C94.5247 38.9352 92.5563 39.625 90.0721 39.625C87.1458 39.625 84.5879 38.6334 82.3984 36.65L84.6405 33.6101C86.4511 34.99 88.1458 35.6798 89.7247 35.6798C91.009 35.6798 92.0194 35.3564 92.7563 34.7097C93.5142 34.0629 93.8932 33.1251 93.8932 31.8963V31.0231C92.7563 32.2951 91.1669 32.931 89.1247 32.931C86.9563 32.931 85.1669 32.1873 83.7563 30.6997C82.3458 29.2121 81.6405 27.3042 81.6405 24.9758C81.6405 22.6259 82.3458 20.7179 83.7563 19.2519C85.1669 17.7859 86.9563 17.053 89.1247 17.053C91.3984 17.053 93.1037 17.8399 94.2405 19.4136V17.4086ZM93.9563 24.9112C93.9563 23.5961 93.5774 22.5828 92.8195 21.8713C92.0826 21.1384 91.1458 20.7719 90.009 20.7719C88.83 20.7719 87.8615 21.1491 87.1036 21.9037C86.3457 22.6582 85.9669 23.6715 85.9669 24.9435C85.9669 26.2155 86.3457 27.2503 87.1036 28.048C87.8826 28.8456 88.8511 29.2445 90.009 29.2445C91.1248 29.2445 92.0616 28.8564 92.8195 28.0803C93.5774 27.3042 93.9563 26.2478 93.9563 24.9112Z" fill="#BDA37D"/>
<path d="M100.961 30.6997L103.109 28.048C104.456 29.4924 105.919 30.2146 107.498 30.2146C108.088 30.2146 108.561 30.1068 108.919 29.8913C109.298 29.6541 109.488 29.3199 109.488 28.8888C109.488 28.5654 109.372 28.3175 109.14 28.145C108.93 27.951 108.509 27.7139 107.877 27.4336L106.204 26.7221C104.709 26.0969 103.625 25.4178 102.95 24.6848C102.277 23.9303 101.94 22.9817 101.94 21.839C101.94 20.3515 102.467 19.1873 103.519 18.3465C104.572 17.4841 105.961 17.053 107.688 17.053C110.004 17.053 111.877 17.8506 113.309 19.4459L111.161 22.1301C110.109 21.1168 108.94 20.6101 107.656 20.6101C106.54 20.6101 105.983 20.9874 105.983 21.742C105.983 22.0438 106.098 22.2918 106.33 22.4858C106.562 22.6798 106.993 22.9062 107.625 23.1649L109.14 23.8116C110.698 24.4584 111.814 25.1483 112.488 25.8813C113.183 26.6143 113.53 27.5521 113.53 28.6948C113.53 30.2901 112.95 31.5405 111.793 32.4459C110.656 33.3515 109.204 33.8042 107.435 33.8042C104.635 33.8042 102.477 32.7694 100.961 30.6997Z" fill="#BDA37D"/>
<path d="M34.8208 31.1096C31.1366 19.7911 16.926 23.0249 9.03125 17.6353C11.1366 27.3367 28.5049 25.7198 34.8208 31.1096Z" fill="#BDA37D"/>
<path d="M35.3471 33.804C30.6102 27.8754 19.0314 29.4923 11.1367 24.1025C11.663 27.8754 19.7681 35.0976 35.3471 33.804Z" fill="#BDA37D"/>
<path d="M48.5161 17.4088H53.0004L45.7371 33.8043H44.3477L39.8635 24.4909L36.2919 31.857C33.6602 13.532 5.87413 26.2588 5.3479 5.77783C12.7098 14.5072 26.2885 13.1256 32.7304 20.1763C33.9328 21.4923 34.8866 23.102 35.5049 25.1262L39.1371 17.0532H40.5582L44.8846 26.3342L48.5161 17.4088Z" fill="#BDA37D"/>
</svg>
